<svg xmlns="http://www.w3.org/2000/svg" height="24px" viewBox="0 -960 960 960" width="24px" fill="#5985E1"><path d="M421-92v-104.67h341.33V-495q0-112.41-82.96-189.37-82.96-76.96-198.37-76.96-115.9 0-199.62 77.27-83.71 77.27-83.71 190.06v272h-50q-39.63 0-67.65-27.12Q52-276.24 52-316v-94q0-22 11.17-41Q74.33-470 92-483.33v-16.34q1.33-77.33 32.83-144.66 31.5-67.34 84-117 52.5-49.67 122.26-78.5 69.76-28.84 148.84-28.84 79.07 0 148.9 28.84 69.84 28.83 122.34 78.66 52.5 49.84 84 117.17T868-498.67l.67 15.34Q887-471 897.83-451.93q10.84 19.07 10.84 41.6V-316q0 25.05-9.84 48.19Q889-244.67 868.67-231v35.33q0 42.2-29.42 72.94Q809.83-92 767.67-92H421Zm-78-303.18q-10.67-10.85-10.67-26.67 0-15.82 10.79-26.48 10.78-10.67 27-10.67 16.21 0 26.88 10.85 10.67 10.85 10.67 26.66 0 15.82-10.79 26.49-10.78 10.67-27 10.67-16.21 0-26.88-10.85Zm220 0q-10.67-10.85-10.67-26.67 0-15.82 10.79-26.48 10.78-10.67 27-10.67 16.21 0 26.88 10.85 10.67 10.85 10.67 26.66 0 15.82-10.79 26.49-10.78 10.67-27 10.67-16.21 0-26.88-10.85Zm-312-89.15q-3.67-95 65.1-160.34Q384.86-710 481-710q81.73 0 143.2 52.83 61.47 52.84 75.47 133.84-78.67-1-147.67-36.34Q483-595 441.48-662.33q-19.15 67.66-70.65 114.16-51.5 46.5-119.83 63.84Z"/></svg>